<?xml version="1.0" standalone="no"?>
<!DOCTYPE svg PUBLIC "-//W3C//DTD SVG 20010904//EN"
 "http://www.w3.org/TR/2001/REC-SVG-20010904/DTD/svg10.dtd">
<svg version="1.0" xmlns="http://www.w3.org/2000/svg"
 width="237.000000pt" height="237.000000pt" viewBox="0 0 237.000000 237.000000"
 preserveAspectRatio="xMidYMid meet">
<metadata>
Created by potrace 1.11, written by Peter Selinger 2001-2013
</metadata>
<g transform="translate(0.000000,237.000000) scale(0.100000,-0.100000)"
fill="#000000" stroke="none">
<path d="M367 2326 c-3 -6 0 -19 5 -30 7 -13 7 -16 -1 -12 -6 4 -11 3 -11 -3
0 -5 5 -13 11 -17 7 -4 8 -9 0 -17 -7 -7 -7 -16 0 -30 8 -15 8 -18 -1 -12 -9
5 -10 1 -5 -15 10 -30 10 -103 1 -118 -4 -7 -3 -12 2 -12 5 0 9 -18 8 -39 0
-24 -5 -37 -11 -33 -5 3 -4 -1 2 -9 10 -12 10 -18 1 -27 -8 -8 -8 -12 -1 -12
13 0 12 -92 -2 -102 -7 -5 -7 -8 0 -8 11 0 12 -101 1 -118 -4 -7 -3 -12 2 -12
13 0 10 -93 -3 -102 -7 -5 -7 -8 0 -8 11 0 12 -101 1 -118 -4 -7 -3 -12 2 -12
5 0 9 -18 8 -39 0 -22 -5 -37 -10 -34 -5 4 -6 1 -1 -6 10 -16 11 -94 1 -109
-4 -7 -3 -12 1 -12 5 0 9 -9 10 -20 1 -13 -2 -18 -9 -14 -7 5 -8 2 -3 -5 10
-16 11 -94 1 -109 -4 -7 -4 -12 1 -12 12 0 10 -54 -2 -62 -6 -5 -6 -8 0 -8 11
0 12 -101 1 -118 -4 -7 -3 -12 2 -12 4 0 8 -22 8 -50 -1 -27 -5 -50 -11 -50
-5 0 -4 -4 3 -9 8 -4 14 -12 14 -16 0 -4 -6 -12 -14 -16 -11 -7 -11 -9 1 -9
10 0 11 -3 2 -13 -8 -10 -7 -17 1 -25 9 -9 9 -12 0 -12 -7 0 -12 -5 -12 -11 0
-5 4 -8 8 -5 4 2 8 -10 8 -29 0 -21 -4 -31 -10 -27 -6 3 -5 -1 1 -9 10 -12 10
-18 1 -27 -7 -7 -8 -12 -2 -12 6 0 10 -22 10 -50 -1 -27 -5 -50 -11 -50 -7 0
-7 -3 0 -8 15 -10 18 -55 3 -46 -7 5 -8 3 -3 -5 10 -16 11 -94 1 -109 -4 -7
-3 -12 1 -12 5 0 9 -9 10 -20 1 -13 -2 -18 -9 -14 -7 5 -8 2 -3 -5 10 -16 11
-94 1 -109 -4 -7 -3 -12 2 -12 5 0 9 -18 8 -39 0 -24 -5 -37 -11 -33 -5 3 -4
-1 2 -9 10 -12 10 -18 1 -27 -9 -9 -9 -12 1 -12 7 0 9 -5 6 -10 -4 -7 60 -10
197 -8 l203 3 1 250 c0 138 2 255 4 260 1 6 1 12 0 15 -6 14 -5 127 1 141 5 9
5 19 2 23 -10 10 -11 118 -1 138 4 9 5 19 0 22 -9 5 -9 129 0 136 9 7 49 -36
41 -44 -3 -3 2 -8 11 -12 9 -3 16 -12 16 -20 0 -8 5 -14 10 -14 6 0 10 -4 10
-10 0 -5 8 -18 18 -28 9 -11 26 -32 37 -47 11 -16 26 -34 33 -41 6 -7 12 -16
12 -20 0 -3 10 -15 22 -25 11 -11 18 -19 14 -19 -4 0 4 -12 18 -27 14 -15 23
-30 20 -35 -3 -4 1 -8 9 -8 8 0 20 -13 27 -30 7 -16 16 -27 21 -24 5 3 9 0 9
-6 0 -7 23 -40 50 -75 28 -35 50 -68 50 -75 0 -6 4 -8 10 -5 5 3 10 -1 10 -9
0 -9 5 -16 10 -16 6 0 10 -5 10 -11 0 -6 11 -23 25 -37 14 -15 24 -30 23 -33
-2 -3 9 -17 25 -31 15 -14 27 -28 27 -32 0 -7 6 -15 42 -58 13 -14 48 -60 78
-102 30 -42 58 -76 63 -76 4 0 5 -4 2 -10 -4 -7 83 -10 255 -10 l261 0 -30 29
c-16 16 -27 32 -24 35 4 3 0 6 -7 6 -7 0 -11 3 -7 6 3 4 -7 20 -23 36 -17 16
-30 34 -30 39 0 5 -8 18 -17 28 -10 11 -22 26 -28 33 -5 7 -30 40 -55 73 -25
33 -48 62 -52 63 -5 2 -8 8 -8 13 0 6 -5 15 -10 22 -19 23 -45 55 -64 82 -11
14 -28 36 -38 47 -10 12 -18 27 -18 35 0 7 -6 12 -12 11 -7 -2 -12 3 -10 10 1
7 -5 15 -13 18 -8 4 -15 12 -15 20 0 8 -4 14 -10 14 -5 0 -10 6 -10 13 0 7 -9
19 -20 27 -11 8 -20 20 -20 26 0 7 -3 14 -7 16 -13 5 -93 116 -93 128 0 5 -7
10 -17 10 -9 0 -14 3 -10 6 3 3 1 11 -4 18 -58 69 -59 71 -26 73 47 3 72 7 82
13 6 4 22 6 37 5 15 -1 25 2 22 7 -4 7 26 13 49 9 4 0 7 4 7 11 0 6 3 8 7 5 3
-4 11 -3 17 1 6 5 30 14 54 22 23 7 42 17 42 22 0 4 5 8 11 8 18 0 93 56 152
114 31 31 54 56 51 56 -5 0 8 17 38 51 10 10 15 19 11 19 -3 0 1 8 10 18 10
10 14 22 10 25 -3 4 -1 7 5 7 7 0 12 9 12 19 0 11 4 22 9 25 4 3 12 20 16 38
4 18 8 35 9 38 1 3 5 11 9 18 5 6 5 12 0 12 -4 0 -1 5 7 10 11 7 11 10 2 10
-7 0 -11 4 -7 10 3 5 8 32 10 60 3 28 8 56 11 62 4 6 2 8 -3 5 -6 -4 -13 0
-17 8 -3 8 -1 17 3 19 11 7 1 75 -21 146 -14 48 -69 162 -85 178 -7 7 -20 26
-30 42 -9 17 -23 30 -30 30 -7 0 -13 4 -13 8 0 13 -36 52 -48 52 -5 0 -12 6
-15 14 -6 16 -156 112 -169 109 -4 -2 -8 1 -8 6 0 5 -11 12 -25 15 -13 3 -37
11 -52 18 -31 12 -49 17 -75 20 -10 1 -18 5 -18 8 0 3 -17 7 -37 8 -21 2 -40
8 -44 14 -4 7 -9 7 -13 -1 -4 -6 -13 -8 -19 -4 -20 13 -966 12 -970 -1z m518
-398 c33 2 98 3 130 2 17 0 40 2 52 4 13 3 25 1 28 -4 3 -5 15 -6 27 -1 12 4
39 5 60 1 21 -4 41 -3 44 1 3 5 10 7 15 3 6 -3 32 -8 57 -11 26 -3 55 -9 66
-15 14 -7 17 -7 11 2 -5 9 -1 8 16 -1 13 -7 26 -14 29 -14 21 -4 79 -36 97
-54 12 -11 26 -21 30 -21 5 0 19 -18 33 -40 14 -22 28 -40 32 -40 6 0 20 -47
24 -82 1 -10 2 -19 4 -20 7 -10 7 -39 -1 -44 -5 -3 -7 -10 -3 -15 8 -14 -34
-100 -63 -126 -13 -13 -20 -23 -16 -23 4 0 -7 -10 -24 -21 -18 -12 -33 -25
-33 -30 0 -4 -7 -6 -15 -3 -8 4 -15 2 -15 -3 0 -11 -69 -38 -87 -35 -7 2 -13
-2 -13 -9 0 -6 -8 -9 -20 -6 -11 3 -23 1 -26 -5 -4 -6 -10 -5 -15 3 -6 9 -9
10 -9 2 0 -6 -8 -12 -17 -13 -90 -4 -112 -6 -119 -12 -4 -4 -12 -4 -17 -1 -21
13 -58 12 -51 0 5 -9 3 -8 -6 0 -10 9 -17 10 -27 2 -7 -7 -13 -7 -13 -2 0 5
-9 9 -20 10 -13 1 -18 -2 -13 -10 5 -9 3 -9 -8 0 -12 10 -18 10 -27 1 -7 -7
-12 -8 -12 -2 0 5 -18 9 -39 10 -25 0 -37 -4 -33 -10 3 -6 -1 -5 -9 1 -12 10
-18 10 -27 1 -7 -7 -12 -8 -12 -2 0 6 -17 10 -37 10 l-36 -1 -2 125 c0 69 3
131 8 138 6 7 6 12 0 12 -13 0 -11 143 2 152 6 5 6 8 -1 8 -12 0 -11 140 1
161 5 8 4 10 -3 5 -8 -4 -10 -2 -6 8 6 16 49 26 74 18 8 -3 24 -4 35 -4z"/>
</g>
</svg>
