<?xml version="1.0" standalone="no"?>
<!DOCTYPE svg PUBLIC "-//W3C//DTD SVG 20010904//EN"
 "http://www.w3.org/TR/2001/REC-SVG-20010904/DTD/svg10.dtd">
<svg version="1.0" xmlns="http://www.w3.org/2000/svg"
 width="260.000000pt" height="260.000000pt" viewBox="0 0 260.000000 260.000000"
 preserveAspectRatio="xMidYMid meet">
<metadata>
Created by potrace 1.11, written by Peter Selinger 2001-2013
</metadata>
<g transform="translate(0.000000,260.000000) scale(0.100000,-0.100000)"
fill="#000000" stroke="none">
<path d="M468 2472 c-21 -4 -23 -13 -6 -30 9 -9 9 -12 1 -12 -7 0 -11 -9 -10
-20 1 -11 6 -20 12 -20 5 0 4 -4 -4 -9 -9 -6 -10 -11 -2 -15 8 -5 8 -13 0 -28
-8 -15 -8 -22 1 -28 9 -6 9 -12 0 -30 -9 -17 -9 -21 0 -15 9 6 9 2 1 -14 -7
-11 -8 -21 -2 -21 5 0 8 -11 7 -25 0 -14 -5 -25 -11 -25 -5 0 -4 -4 4 -9 10
-6 11 -13 2 -29 -7 -14 -8 -23 -1 -27 5 -3 10 -11 10 -16 0 -6 -4 -8 -9 -5
-10 7 -9 -20 2 -30 3 -4 2 -16 -4 -27 -8 -15 -8 -18 1 -12 9 6 9 2 1 -14 -7
-11 -8 -21 -2 -21 5 0 8 -11 7 -25 0 -14 -5 -25 -11 -25 -6 0 -6 -3 1 -8 12
-8 14 -53 2 -46 -4 3 -8 0 -8 -5 0 -6 4 -11 9 -11 5 0 8 -11 7 -25 0 -14 -5
-25 -11 -25 -5 0 -4 -4 3 -9 17 -11 17 -21 0 -32 -8 -6 -9 -9 -2 -9 7 0 11
-11 10 -24 0 -13 -4 -22 -8 -19 -5 2 -8 0 -8 -6 0 -5 5 -11 11 -13 9 -3 9 -9
0 -25 -6 -12 -7 -24 -3 -27 10 -6 9 -36 -1 -53 -4 -6 -4 -14 1 -17 9 -5 9 -47
-1 -63 -4 -7 -3 -14 3 -18 7 -4 6 -13 -1 -27 -8 -16 -8 -19 1 -13 9 6 9 2 1
-14 -7 -11 -8 -21 -2 -21 5 0 8 -11 7 -25 0 -14 -5 -25 -11 -25 -5 0 -4 -4 4
-9 10 -6 11 -13 2 -29 -7 -14 -8 -23 -1 -27 5 -3 10 -11 10 -16 0 -6 -4 -8 -9
-5 -10 7 -9 -20 2 -30 3 -4 2 -16 -4 -27 -8 -15 -8 -18 1 -12 9 6 9 2 1 -14
-7 -11 -8 -21 -3 -21 11 0 9 -50 -2 -68 -3 -6 -3 -13 2 -16 9 -5 9 -47 -1 -63
-4 -5 -3 -13 0 -17 11 -11 10 -46 -1 -46 -8 0 -8 -3 0 -8 12 -8 14 -53 2 -46
-4 3 -8 0 -8 -5 0 -6 4 -11 9 -11 5 0 8 -11 7 -25 0 -14 -5 -25 -11 -25 -5 0
-4 -4 3 -9 17 -11 17 -21 0 -32 -8 -6 -9 -9 -2 -9 7 0 11 -11 10 -24 0 -13 -4
-22 -8 -19 -5 2 -8 0 -8 -6 0 -5 5 -11 11 -13 9 -3 9 -9 0 -25 -7 -15 -8 -24
-1 -28 6 -4 7 -12 3 -18 -10 -16 -11 -47 -2 -47 4 0 6 -11 5 -25 0 -14 -5 -25
-11 -25 -5 0 -4 -4 4 -9 10 -6 11 -13 2 -29 -7 -14 -8 -23 -1 -27 5 -3 10 -11
10 -16 0 -6 -4 -8 -9 -5 -10 7 -9 -20 2 -30 3 -4 2 -16 -4 -27 -8 -15 -8 -18
1 -12 9 6 9 3 1 -13 -8 -15 -8 -21 1 -24 8 -3 8 -10 -2 -27 -9 -18 -9 -22 0
-16 9 6 9 2 1 -14 -7 -11 -8 -21 -2 -21 5 0 8 -11 7 -25 0 -14 -5 -25 -11 -25
-5 0 -4 -4 4 -9 10 -7 11 -13 1 -31 -10 -18 -9 -21 1 -15 9 6 10 3 5 -11 -12
-29 -14 -64 -5 -58 5 3 9 0 9 -6 0 -7 7 -10 15 -6 8 3 15 0 15 -7 0 -8 3 -8 8
-2 9 13 102 15 102 2 0 -5 6 -5 13 2 14 11 47 8 69 -5 6 -4 8 -3 5 3 -4 5 6
10 23 10 16 0 27 -5 23 -10 -3 -5 2 -5 13 1 11 5 35 8 54 7 19 -1 40 0 46 2 7
3 10 160 10 508 -1 278 -1 505 0 505 7 0 44 -40 44 -48 0 -6 4 -12 8 -14 5 -1
25 -27 45 -57 21 -29 37 -49 37 -45 0 5 6 0 12 -11 7 -11 11 -21 10 -23 -2 -2
8 -14 65 -78 12 -13 19 -24 16 -24 -4 0 3 -10 14 -22 42 -48 153 -198 146
-198 -5 0 -1 -5 8 -10 9 -5 29 -28 45 -52 16 -23 39 -52 50 -63 12 -11 21 -23
20 -27 0 -3 8 -17 19 -30 11 -13 33 -41 49 -63 17 -22 35 -43 40 -47 6 -4 7
-8 2 -8 -5 0 4 -12 20 -28 16 -15 30 -31 31 -35 1 -5 13 -23 28 -40 14 -18 34
-44 42 -59 18 -29 51 -42 79 -31 12 5 15 3 9 -6 -6 -10 -3 -11 11 -3 22 11 74
10 93 -3 9 -5 12 -4 8 2 -3 5 10 9 34 9 21 0 39 -5 39 -11 0 -6 3 -7 8 0 10
15 55 18 46 3 -5 -7 -3 -8 7 -3 18 12 99 14 99 3 0 -5 6 -6 13 -1 19 12 39 13
57 3 14 -8 16 -5 12 15 -2 14 -8 25 -13 25 -5 0 -9 7 -9 15 0 8 -7 15 -16 15
-8 0 -12 5 -9 10 3 5 1 10 -4 10 -6 0 -11 7 -11 16 0 8 -4 12 -10 9 -5 -3 -10
-1 -10 6 0 10 -56 91 -95 136 -42 49 -159 220 -157 228 2 5 1 7 -3 3 -7 -7
-51 46 -114 137 -19 28 -37 52 -41 55 -3 3 -18 23 -35 45 -16 22 -34 43 -39
47 -6 4 -8 8 -3 8 4 0 -1 9 -10 19 -33 36 -43 50 -43 60 0 5 -4 11 -8 13 -4 2
-21 20 -36 41 -28 37 -27 40 17 40 9 0 17 3 17 6 0 4 8 7 18 8 45 3 62 8 62
18 0 5 5 3 10 -5 7 -11 10 -11 10 -2 0 7 3 11 8 9 4 -3 18 0 32 6 14 5 30 11
35 12 6 2 21 7 35 13 14 5 28 9 31 8 4 0 16 7 26 17 11 9 23 14 26 11 4 -4 9
1 13 10 3 9 11 16 18 16 26 0 186 150 186 175 0 7 7 15 15 19 8 3 15 12 15 20
0 8 4 16 8 18 9 3 61 123 67 153 2 11 4 20 5 20 3 0 9 41 12 78 1 20 7 37 12
37 6 0 5 4 -3 9 -12 8 -12 12 -2 25 8 9 9 16 4 16 -6 0 -9 12 -8 28 1 15 -1
31 -3 37 -3 5 -6 21 -6 35 -1 14 -5 31 -10 39 -7 10 -5 12 5 6 11 -6 12 -5 2
6 -7 7 -13 21 -13 31 0 10 -5 18 -12 18 -6 0 -8 3 -5 7 4 3 0 17 -9 31 -11 17
-12 22 -3 16 10 -6 10 -3 -1 12 -8 10 -19 22 -23 25 -5 3 -8 9 -8 13 3 25 -1
36 -15 36 -8 0 -12 5 -9 10 3 6 1 10 -4 10 -6 0 -11 7 -11 15 0 8 -4 15 -10
15 -5 0 -10 7 -10 16 0 8 -3 13 -7 11 -10 -4 -53 40 -46 47 3 2 -5 9 -16 15
-11 6 -32 23 -45 36 -14 14 -30 25 -36 25 -6 0 -8 6 -4 13 4 6 4 9 0 5 -4 -3
-32 9 -61 28 -30 19 -61 34 -70 34 -8 0 -15 4 -15 8 0 4 -21 14 -47 21 -27 8
-52 16 -58 20 -11 6 -13 7 -70 16 -22 4 -44 10 -50 13 -10 7 -967 10 -997 4z
m957 -411 c6 -3 19 -7 30 -8 11 -2 27 -6 35 -10 8 -3 17 -7 20 -8 37 -13 90
-44 111 -67 9 -10 21 -18 27 -18 6 0 14 -9 17 -20 3 -11 10 -20 15 -20 6 0 27
-42 41 -85 9 -25 14 -95 7 -95 -5 0 -6 -11 -4 -25 3 -14 0 -25 -5 -25 -6 0 -8
-4 -5 -9 3 -5 -1 -14 -9 -21 -8 -7 -15 -18 -15 -25 0 -17 -110 -116 -121 -109
-5 3 -9 0 -9 -5 0 -6 -9 -11 -20 -11 -11 0 -20 -4 -20 -10 0 -5 -3 -9 -7 -9
-24 4 -53 -2 -49 -10 3 -5 -9 -9 -27 -9 -17 0 -43 -3 -57 -6 -42 -11 -158 -19
-200 -13 -14 2 -30 -1 -37 -5 -6 -5 -14 -5 -17 1 -4 5 -19 7 -34 4 -30 -6 -35
-6 -75 0 -15 2 -30 0 -33 -5 -4 -5 -10 -5 -17 0 -7 5 -19 8 -27 7 -8 -2 -27
-5 -42 -8 -15 -3 -27 -3 -27 1 1 4 0 9 -1 12 -4 10 -6 595 -2 608 4 11 58 13
276 11 149 -1 276 -4 281 -8z"/>
</g>
</svg>
